<?xml version="1.0" encoding="utf-8"?>
<svg version="1.1" xmlns="http://www.w3.org/2000/svg" xmlns:xlink="http://www.w3.org/1999/xlink" x="0px"
     y="0px"
     viewBox="0 0 108 99.2" style="enable-background:new 0 0 108 99.2;" xml:space="preserve">
<style type="text/css">
	.svg-manual-collect-cls-0 {
        fill: #D76433;
    }

    .svg-manual-collect-cls-1 {
        fill: #666666;
    }

</style>
    <g>
	<path class="svg-manual-collect-cls-0 svg-fill" d="M105.8,4.2H74.7c-1.2,0-2.2,1-2.2,2.2v31.1c0,1.2,1,2.2,2.2,2.2h31.1c1.2,0,2.2-1,2.2-2.2V6.5
		C108,5.3,107,4.2,105.8,4.2z M91.8,8.2v4.9h-3.6V8.2H91.8z M104,35.8H76.4V8.2h7.8v6.9c0,1.1,0.9,2,2,2h7.6c1.1,0,2-0.9,2-2V8.2
		h8.2V35.8z"/>
        <path class="svg-manual-collect-cls-0 svg-fill" d="M95,29.9c-1.1,0-2,0.9-2,2c0,1.1,0.9,2,2,2h5.2c1.1,0,2-0.9,2-2s-0.9-2-2-2H95z"/>
</g>
    <g>
	<path class="svg-manual-collect-cls-0 svg-fill" d="M32.5,99.3H8.9c-1.2,0-2.2-1-2.2-2.2V73.5c0-1.2,1-2.2,2.2-2.2h23.7c1.2,0,2.2,1,2.2,2.2v23.7
		C34.7,98.3,33.7,99.3,32.5,99.3z M10.7,95.3h20v-20h-20C10.7,75.3,10.7,95.3,10.7,95.3z"/>
        <path class="svg-manual-collect-cls-0 svg-fill" d="M23.4,82.1h-5.8c-1.1,0-2-0.9-2-2v-6.8c0-1.1,0.9-2,2-2h5.8c1.1,0,2,0.9,2,2v6.8
		C25.4,81.2,24.5,82.1,23.4,82.1z M19.6,78.1h1.8v-2.8h-1.8V78.1z"/>
</g>
    <g>
	<path class="svg-manual-collect-cls-0 svg-fill" d="M32.5,75.3H8.9c-1.2,0-2.2-1-2.2-2.2V49.5c0-1.2,1-2.2,2.2-2.2h23.7c1.2,0,2.2,1,2.2,2.2v23.7
		C34.7,74.3,33.7,75.3,32.5,75.3z M10.7,71.3h20v-20h-20C10.7,51.3,10.7,71.3,10.7,71.3z"/>
        <path class="svg-manual-collect-cls-0 svg-fill" d="M23.4,58.1h-5.8c-1.1,0-2-0.9-2-2v-6.8c0-1.1,0.9-2,2-2h5.8c1.1,0,2,0.9,2,2v6.8
		C25.4,57.2,24.5,58.1,23.4,58.1z M19.6,54.1h1.8v-2.8h-1.8V54.1z"/>
</g>
    <g>
	<path class="svg-manual-collect-cls-0 svg-fill" d="M56.5,99.3H32.9c-1.2,0-2.2-1-2.2-2.2V73.5c0-1.2,1-2.2,2.2-2.2h23.7c1.2,0,2.2,1,2.2,2.2v23.7
		C58.7,98.3,57.7,99.3,56.5,99.3z M34.7,95.3h20v-20h-20V95.3z"/>
        <path class="svg-manual-collect-cls-0 svg-fill" d="M47.4,82.1h-5.8c-1.1,0-2-0.9-2-2v-6.8c0-1.1,0.9-2,2-2h5.8c1.1,0,2,0.9,2,2v6.8
		C49.4,81.2,48.5,82.1,47.4,82.1z M43.7,78.1h1.8v-2.8h-1.8V78.1z"/>
</g>
    <g>
	<path class="svg-manual-collect-cls-0 svg-fill" d="M45.3,30.9L33.9,24c-0.3-0.2-0.7-0.3-1-0.3h-0.1c-0.4,0-0.7,0.1-1,0.3L2.3,41.8c-1.6,0.9-2.7,2.7-2.7,4.6v51
		c0,1.1,0.9,2,2,2s2-0.9,2-2V46.3c0-0.5,0.2-0.9,0.7-1.1l28.5-17.2l11.1,6.7C44.3,33.4,44.8,32.1,45.3,30.9L45.3,30.9z"/>
        <path class="svg-manual-collect-cls-0 svg-fill" d="M63.4,41.8l-7.7-4.6c-0.4,1.2-0.8,2.6-1.1,4l6.8,4.1c0.4,0.2,0.6,0.6,0.6,1.1v51c0,1.1,0.9,2,2,2s2-0.9,2-2
		v-51C66,44.4,65,42.7,63.4,41.8L63.4,41.8z"/>
</g>
    <path class="svg-manual-collect-cls-0 svg-fill" d="M68.9,21c0-1.1-0.9-2-2-2c-5.1,0-9.4,1.8-12.9,5.4c-6.9,7.2-8.7,19.9-8.7,30.8l-3.6-3.6
	c-0.4-0.4-0.9-0.6-1.4-0.6s-1,0.2-1.4,0.6c-0.8,0.8-0.8,2,0,2.8l7.1,7.1h0c0.1,0.1,0.2,0.1,0.2,0.2c0,0,0,0,0.1,0.1
	c0.1,0.1,0.2,0.1,0.3,0.2c0,0,0.1,0,0.1,0c0.1,0,0.2,0,0.2,0.1c0.1,0,0.2,0,0.3,0c0,0,0,0,0,0l0,0c0,0,0,0,0.1,0c0,0,0.1,0,0.1,0
	c0.1,0,0.2,0,0.2,0c0.1,0,0.1,0,0.2,0s0.1,0,0.2-0.1c0.1,0,0.1-0.1,0.2-0.1c0,0,0.1-0.1,0.2-0.1c0.1,0,0.1-0.1,0.2-0.1
	c0,0,0.1,0,0.1-0.1l7.3-7.3c0.8-0.8,0.8-2,0-2.8c-0.4-0.4-0.9-0.6-1.4-0.6s-1,0.2-1.4,0.6l-4,4c0-13.1,2.7-23,7.6-28.1
	c2.7-2.8,6-4.2,10-4.2C68,23,68.9,22.1,68.9,21L68.9,21z"/>
    <polygon class="svg-manual-collect-cls-1 svg-fill" points="42.6,29.6 38.4,40 42.7,40 44.9,34.5 44.9,29.6 "/>
    <polygon class="svg-manual-collect-cls-1 svg-fill" points="42.6,29.6 38.4,40 42.7,40 44.9,34.5 44.9,29.6 "/>
    <path class="svg-manual-collect-cls-1 svg-fill" d="M71.3,41.2h-7.9l8.2-10.7l2.5-3.3l1.3-1.7c1-1.3,1.2-3.1,0.4-4.6c-0.8-1.5-2.2-2.5-3.9-2.5l-20.1-0.1
	c-1,0-1.9,0.2-2.8,0.6c-1.6,0.7-2.9,2-3.6,3.7l-0.4,1l-0.7,1.8l-1.6,4.1L38.4,40l-1.6,4l-2.6,6.5c-0.5,1.4-0.4,2.9,0.5,4.1
	c0.8,1.2,2.2,1.9,3.7,1.9h10.2l-0.1,0.6l-0.8,3.9l-3.5,16.7c-0.2,0.9,0.2,1.8,1.1,2.2c0.3,0.1,0.6,0.2,0.9,0.2
	c0.6,0,1.1-0.2,1.5-0.7l16.2-18.6l3.3-3.8l7.4-8.5c1.2-1.3,1.4-3.1,0.7-4.7C74.5,42.2,73,41.2,71.3,41.2z"/>
    <path class="svg-manual-collect-cls-2 svg-fill" d="M71.6,45.9l-9.6,11l-3.1,3.5l-9.3,10.7L51.6,61l0.8-4l0.4-2.1c0.1-0.6,0-1.2-0.4-1.7c-0.4-0.5-1-0.7-1.5-0.7
	H38.3c-0.2,0-0.3-0.1-0.3-0.2c-0.1-0.1-0.1-0.2,0-0.4l3.2-7.9l1.6-4l2.2-5.5l4-10l0.1-0.4c0.4-1.1,1.5-1.8,2.6-1.8h0l20.1,0.1
	c0.2,0,0.3,0.1,0.4,0.2c0.1,0.1,0.1,0.3,0,0.4L69.9,26l-2.7,3.6L57.7,42c-0.5,0.6-0.5,1.4-0.2,2.1c0.3,0.7,1,1.1,1.8,1.1h12
	c0.2,0,0.3,0.1,0.4,0.2S71.7,45.7,71.6,45.9z"/>
    <polygon class="svg-manual-collect-cls-1 svg-fill" points="42.6,29.6 38.4,40 42.7,40 44.9,34.5 44.9,29.6 "/>
    <polygon class="svg-manual-collect-cls-1 svg-fill" points="42.6,29.6 38.4,40 42.7,40 44.9,34.5 44.9,29.6 "/>
</svg>
