<?xml version="1.0" encoding="UTF-8"?>
<svg xmlns="http://www.w3.org/2000/svg" viewBox="0 0 100 100">
  <defs>
    <style>
      .svg-new-article-RFID-cls-1 {
        fill: #33a5d7;
      }
    </style>
  </defs>
  <g data-name="Groupe 850">
    <path data-name="Tracé 316" class="svg-new-article-RFID-cls-1 svg-fill" d="m6.34,57.22c-1.67,0-3.02-1.39-3.02-3.11V8.54c0-1.72,1.35-3.11,3.03-3.11s3.03,1.39,3.03,3.11v45.57c0,1.72-1.35,3.11-3.02,3.11"/>
    <path data-name="Tracé 317" class="svg-new-article-RFID-cls-1 svg-fill" d="m35.58,57.22c-1.67,0-3.02-1.39-3.02-3.11h0V8.54c0-1.72,1.35-3.11,3.03-3.11s3.03,1.39,3.03,3.11v45.57c0,1.72-1.35,3.11-3.02,3.11h0"/>
    <path data-name="Tracé 318" class="svg-new-article-RFID-cls-1 svg-fill" d="m20.96,57.22c-3.06,0-5.54-2.55-5.55-5.7V11.13c0-3.15,2.48-5.7,5.55-5.7s5.55,2.55,5.55,5.7v40.39c0,3.15-2.48,5.69-5.55,5.7"/>
    <path data-name="Tracé 319" class="svg-new-article-RFID-cls-1 svg-fill" d="m49.13,45.8c.49-.5,1.04-1.01,1.57-1.51V8.54c0-1.72-1.35-3.11-3.02-3.11-1.67,0-3.03,1.38-3.03,3.1h0v43.11c1.27-2.12,2.77-4.07,4.47-5.83"/>
    <path data-name="Tracé 320" class="svg-new-article-RFID-cls-1 svg-fill" d="m67.85,36.53V11.13c0-3.15-2.48-5.7-5.55-5.7s-5.55,2.55-5.55,5.7v28.88c3.45-1.87,7.22-3.05,11.09-3.48"/>
    <path data-name="Tracé 321" class="svg-new-article-RFID-cls-1 svg-fill" d="m85,39.52V11.13c0-3.15-2.48-5.7-5.55-5.7s-5.55,2.55-5.55,5.7v25.31c3.85.31,7.61,1.36,11.09,3.08"/>
    <path data-name="Tracé 322" class="svg-new-article-RFID-cls-1 svg-fill" d="m89.24,50.13c-9.91-10.14-25.95-10.12-35.82.06-9.88,10.18-9.85,26.65.05,36.79,9.91,10.14,25.95,10.12,35.82-.06h0c9.88-10.18,9.85-26.65-.05-36.79m-1.65,21.85h-12.87v13.22c-.07,1.91-1.63,3.39-3.49,3.32-1.76-.07-3.16-1.51-3.23-3.32v-13.22h-12.87c-1.86,0-3.36-1.55-3.36-3.45s1.51-3.45,3.36-3.45h12.87v-13.22c0-1.91,1.51-3.45,3.36-3.45s3.36,1.55,3.36,3.45v13.22h12.87c1.86.07,3.3,1.68,3.23,3.58-.07,1.8-1.48,3.25-3.23,3.32"/>
  </g>
</svg>
