<svg width="1103" height="841" viewBox="0 0 1103 841" fill="none" xmlns="http://www.w3.org/2000/svg">
    <path class="svg-fill svg-stroke"
        d="M23 503.693C23 367.247 123.295 257.877 258.891 235.971C315.614 134.805 425.435 68 552.029 68C712.733 68.0002 844.801 175.65 881.936 319.738C992.035 335.555 1081.06 432.305 1081.06 545.025C1081.06 672.547 978.143 773 849.07 773H297.114C146.438 773 23.0001 652.411 23 503.693ZM61.398 503.693C61.398 630.518 166.952 734.602 297.114 734.602H849.07C957.629 734.602 1042.66 650.654 1042.66 545.025C1042.66 448.433 962.221 364.167 864.835 356.446C856.366 355.774 849.343 349.616 847.574 341.307C819.211 208.133 699.561 106.398 552.029 106.398C435.966 106.398 336.723 169.257 288.221 262.448C285.32 268.023 279.873 271.825 273.64 272.627C150.645 288.453 61.398 384.836 61.398 503.693Z"
        fill="#8F8F8F" stroke="#8F8F8F" stroke-width="25" stroke-miterlimit="10" stroke-linecap="round" stroke-linejoin="round"/>
    <path class="svg-stroke" d="M632.495 535.649V427.352H738.997V535.649H819.047L685.398 671.552L551.748 535.649H632.495Z" stroke="#8F8F8F"
          stroke-width="40" stroke-miterlimit="10" stroke-linecap="round" stroke-linejoin="round"/>
    <path class="svg-stroke"
        d="M484.874 395.583L484.874 503.88L378.372 503.88L378.372 395.583L298.321 395.583L431.971 259.681L565.62 395.583L484.874 395.583Z"
        stroke="#8F8F8F" stroke-width="40" stroke-miterlimit="10" stroke-linecap="round" stroke-linejoin="round"/>
</svg>
