<svg xmlns="http://www.w3.org/2000/svg" viewBox="0 0 108 99.23">
    <path fill="#b5288d"
          d="M76.71,79.83a2,2,0,0,0,1.24.43,2,2,0,0,0,.47-.06l8.83-2.14a2,2,0,0,0,1.52-1.94V64.4a2,2,0,0,0-.67-1.49,2,2,0,0,0-1.57-.49l-8.83,1.1a2,2,0,0,0-1.75,2V78.26A2,2,0,0,0,76.71,79.83ZM80,67.27l4.82-.6v7.87L80,75.72Z"/>
    <path fill="#b5288d"
          d="M105.13,48.11l-5.74-9.94a18.69,18.69,0,1,0-32.66-12.4c0,.19,0,.37,0,.56L54.2,25.5a1.22,1.22,0,0,0-.27,0L15.49,28l-.13,0-.15,0a1.7,1.7,0,0,0-.45.15h0a2.09,2.09,0,0,0-.42.29l-.09.09a1.86,1.86,0,0,0-.33.41l-11,19.07a2,2,0,0,0,1.28,3l9.57,2.24V81.05a2,2,0,0,0,1.54,2L53.6,92.11a2.49,2.49,0,0,0,.46,0,2,2,0,0,0,.48-.06l38.31-9.29a2,2,0,0,0,1.53-1.94V53.27l9.47-2.21a2,2,0,0,0,1.28-3Zm-19.7-37a14.7,14.7,0,1,1-14.7,14.7A14.71,14.71,0,0,1,85.43,11.07ZM54.06,29.5l13.27.88c.07.25.12.5.2.74L54,32.81,36.68,30.65ZM16.69,32.19l33.93,4.23L39.2,55.15,7.69,47.78Zm1,22,22,5.15a1.73,1.73,0,0,0,.45,0,2,2,0,0,0,1.71-1l10.2-16.74v45.9L17.72,79.47ZM90.38,79.3,56.06,87.62V41.94L66.14,58.47a2,2,0,0,0,1.71,1,2.3,2.3,0,0,0,.45,0l22.08-5.17ZM68.8,55.15,57.38,36.42,69.16,35a18.72,18.72,0,0,0,16.27,9.52,18.52,18.52,0,0,0,10.92-3.56l4,6.87Z"/>
    <path fill="#b5288d"
          d="M81,32.69a1.5,1.5,0,0,0,0,3h8.86a1.5,1.5,0,0,0,0-3H87.12V22.21a1.5,1.5,0,0,0-1.5-1.5H81a1.5,1.5,0,0,0,0,3h3.12v9Z"/>
    <circle fill="#b5288d" cx="85.62" cy="16.36" r="2.43"/>
</svg>

