<?xml version="1.0" encoding="UTF-8"?>
<svg data-name="Calque 5" xmlns="http://www.w3.org/2000/svg" viewBox="0 0 100 100">
    <defs>
        <style>
            .svg-RFID-wifi-cls-1 {
                fill: #fff;
            }
        </style>
    </defs>
    <circle class="svg-RFID-wifi-cls-1" cx="49.86" cy="86.48" r="8.39"/>
    <path class="svg-RFID-wifi-cls-1"
          d="m49.86,41.96c-11.23,0-21.75,5.07-29.61,14.28l-.09.11c-2.7,3.39-2.62,8.41.19,11.7,1.53,1.78,3.69,2.81,5.95,2.81,2.18,0,4.22-.92,5.75-2.59l.1-.11c4.77-5.58,11.06-8.66,17.72-8.66s12.94,3.08,17.71,8.66c1.52,1.78,3.69,2.81,5.95,2.81h0c2.26,0,4.42-1.03,5.95-2.81,2.85-3.34,2.85-8.57,0-11.92-7.87-9.21-18.38-14.28-29.61-14.28Z"/>
    <path class="svg-RFID-wifi-cls-1"
          d="m96.92,27.8c-6.31-7.36-13.68-13.07-21.91-16.97-7.99-3.79-16.45-5.7-25.12-5.7s-17.13,1.92-25.12,5.7c-8.23,3.9-15.6,9.6-21.91,16.97l-.12.14-.11.15c-2.44,3.4-2.25,8.16.43,11.32,1.53,1.8,3.7,2.83,5.97,2.83,2,0,3.92-.79,5.4-2.23l.14-.14.13-.15c9.44-11.01,21.92-17.07,35.15-17.07s25.71,6.06,35.14,17.06c1.52,1.78,3.69,2.81,5.95,2.81h.03c3.38,0,6.35-2.21,7.56-5.62,1.1-3.1.47-6.68-1.62-9.11Z"/>
</svg>
