<?xml version="1.0" encoding="UTF-8" standalone="no"?>
<svg
   viewBox="0 0 495 462"
   version="1.1"
   xmlns="http://www.w3.org/2000/svg"
   xmlns:svg="http://www.w3.org/2000/svg">
    <style type="text/css">
        .svg-tracking-round-st0{fill:#52B2D4;}
    </style>
    <path class="svg-tracking-round-st0 svg-fill"
       d="m 372.578,231 h -83.82804 c -15.97094,0 -28.87496,12.904 -28.87496,28.875 0,15.971 12.90402,28.875 28.87496,28.875 H 375.375 c 47.82401,0 86.62499,38.801 86.62499,86.625 0,47.824 -38.80098,86.625 -86.62499,86.625 H 125.96701 c 49.18305,-58.90472 -0.0935,0.51389 48.8784,-58.43369 L 375.375,404.25 c 15.97098,0.0544 28.87503,-12.904 28.87503,-28.875 0,-15.971 -12.90396,-28.875 -28.87503,-28.875 h -86.62504 c -47.82395,0 -86.62493,-38.801 -86.62493,-86.625 0,-47.824 38.81706,-87.8648 86.62493,-86.625 l 40.61387,1.05323 C 378.74584,238.19905 309.47571,149.21816 372.578,231 Z"
       style="stroke-width:0.999903" />
    <path class="svg-tracking-round-st0 svg-fill"
       d="m 106.24387,447.31781 c -3.42799,3.88 -6.496421,7.309 -9.113214,10.197 l -1.624197,1.804 -0.1805,-0.18 c -5.4141,4.151 -13.174205,3.609 -18.046898,-1.624 -22.739005,-24.724 -76.69920314,-88.34 -76.69920314,-133.908 0,-47.824 38.80080914,-86.625 86.62499414,-86.625 47.823998,0 86.624978,38.801 86.624978,86.625 0,27.07 -19.03895,60.457 -39.25195,88.339 -9.65506,13.265 -19.58096,25.266 -27.79201,34.741 z m 9.83606,-123.711 c 0,-7.658 -3.04202,-15.003 -8.45706,-20.418 -5.41503,-5.415 -12.75991,-8.457 -20.418018,-8.457 -7.658096,0 -15.002593,3.042 -20.417699,8.457 -5.415099,5.415 -8.457293,12.76 -8.457293,20.418 0,7.658 3.042194,15.003 8.457293,20.418 5.415106,5.415 12.759603,8.457 20.417699,8.457 7.658108,0 15.002988,-3.042 20.418018,-8.457 5.41504,-5.415 8.45706,-12.76 8.45706,-20.418 z"
       style="stroke-width:0.999903" />
    <path class="svg-tracking-round-st0 svg-fill"
       d="m 425.42025,216.28682 c -3.42786,3.88 -6.49627,7.309 -9.11313,10.197 l -1.62422,1.804 -0.18044,-0.18 c -5.41414,4.151 -13.17426,3.609 -18.04694,-1.624 -22.7389,-24.724 -76.69916,-88.34 -76.69916,-133.908001 0,-47.824 38.80079,-86.625 86.62499,-86.625 47.82395,0 86.62499,38.801 86.62499,86.625 0,27.070001 -19.03903,60.457001 -39.25195,88.339001 -9.65507,13.265 -19.58109,25.266 -27.79214,34.741 z m 9.83606,-123.711001 c 0,-7.658 -3.04203,-15.003 -8.45706,-20.418 -5.41485,-5.415 -12.75985,-8.457 -20.4179,-8.457 -7.65812,0 -15.0026,3.042 -20.41774,8.457 -5.41506,5.415 -8.45734,12.76 -8.45734,20.418 0,7.658001 3.04228,15.003001 8.45734,20.418001 5.41514,5.415 12.75962,8.457 20.41774,8.457 7.65805,0 15.00305,-3.042 20.4179,-8.457 5.41503,-5.415 8.45706,-12.76 8.45706,-20.418001 z"
       style="stroke-width:0.999903" />
</svg>
